<?xml version="1.0" encoding="utf-8"?>
<!-- Generator: Adobe Illustrator 24.1.1, SVG Export Plug-In . SVG Version: 6.00 Build 0)  -->
<svg version="1.1" id="レイヤー_1" xmlns="http://www.w3.org/2000/svg" xmlns:xlink="http://www.w3.org/1999/xlink" x="0px"
	 y="0px" viewBox="0 0 334.1 333.3" style="enable-background:new 0 0 334.1 333.3;" xml:space="preserve" preserveAspectRatio="xMinYMid">
<style type="text/css">
	.st0{fill:#797878;}
	.st1{fill:#50CD2A;}
	.st2{fill:#FF0084;}
	.st3{fill:#237AFF;}
	.st4{fill:#E3E3E3;}
	.st5{fill:#FFFFFF;}
	.st6{font-family:'KozGoPro-Bold-90ms-RKSJ-H';}
	.st7{font-size:12px;}
	.st8{fill:#636363;}
	.st9{font-family:'YuMincho-Demibold';}
	.st10{font-size:15.7899px;}
	.st11{font-family:'Impact';}
	.st12{font-size:17px;}
</style>
<path class="st0" d="M168.1,227.8c-22.4,0-41.9-12.3-52.1-30.6l-87.8,51.2c27.8,48.4,80,81,139.9,81c58.7,0,110.1-31.4,138.3-78.4
	l-86-54.2C210.3,215.3,190.7,227.8,168.1,227.8z"/>
<path class="st0" d="M108.4,168.1c0-33,26.7-59.7,59.7-59.7c0.8,0,1.6,0,2.4,0.1V6.9c-0.8,0-1.6,0-2.4,0C79,6.9,6.9,79.1,6.9,168.1
	c0,29.2,7.8,56.6,21.4,80.3l87.8-51.2C111.2,188.6,108.4,178.7,108.4,168.1z"/>
<path class="st0" d="M170.5,6.9v101.6c31.8,1.3,57.3,27.5,57.3,59.6c0,10.4-2.7,20.2-7.4,28.7l86,54.2
	c14.5-24.2,22.9-52.6,22.9-82.9C329.3,79.9,258.5,8.2,170.5,6.9z"/>
<path class="st1" d="M165.1,224.8c-22.4,0-41.9-12.3-52.1-30.6l-87.8,51.2c27.8,48.4,80,81,139.9,81c58.7,0,110.1-31.4,138.3-78.4
	l-86-54.2C207.3,212.3,187.7,224.8,165.1,224.8z"/>
<path class="st2" d="M105.4,165.1c0-33,26.7-59.7,59.7-59.7c0.8,0,1.6,0,2.4,0.1V3.9c-0.8,0-1.6,0-2.4,0C76,3.9,3.9,76.1,3.9,165.1
	c0,29.2,7.8,56.6,21.4,80.3l87.8-51.2C108.2,185.6,105.4,175.7,105.4,165.1z"/>
<path class="st3" d="M167.5,3.9v101.6c31.8,1.3,57.3,27.5,57.3,59.6c0,10.4-2.7,20.2-7.4,28.7l86,54.2
	c14.5-24.2,22.9-52.6,22.9-82.9C326.3,76.9,255.5,5.2,167.5,3.9z"/>
<g>
	<path class="st4" d="M187,173.7l0.2-41l-23.4-8.3l-15.5,5.7l-0.2,43.2l-1.9,0l0,2l42.7,0.4l0-2L187,173.7L187,173.7z M170.7,173.5
		l-5.2,0l0.2-43.6l5.1,1.8L170.7,173.5z M177.9,173.6l-5.2,0l0.2-41.1l5.1,1.8L177.9,173.6z M185,173.6l-5.2,0l0.1-38.7l5.1,1.8
		L185,173.6z"/>
</g>
<g>
	<text transform="matrix(1 0 0 1 249.1963 150.2198)"><tspan x="0" y="0" class="st5 st6 st7">ア</tspan><tspan x="12" y="0" class="st5 st6 st7">ンガ</tspan><tspan x="35.8" y="0" class="st5 st6 st7">ー</tspan><tspan x="-12" y="17" class="st5 st6 st7">マネ</tspan><tspan x="12" y="17" class="st5 st6 st7">ジ</tspan><tspan x="23.9" y="17" class="st5 st6 st7">メント</tspan></text>
</g>
<g>
	<text transform="matrix(1 0 0 1 15.6136 148.8311)"><tspan x="0" y="0" class="st5 st6 st7">アンコンシャス</tspan><tspan x="16.7" y="17" class="st5 st6 st7">バイアス </tspan></text>
</g>
<g>
	<text transform="matrix(1 0 0 1 130.1092 290.1944)"><tspan x="0" y="0" class="st5 st6 st7">ハラスメント</tspan><tspan x="24" y="17" class="st5 st6 st7">防止</tspan></text>
</g>
<g>
	<text transform="matrix(1 0 0 1 144.606 151.4913)"><tspan x="0" y="0" class="st8 st9 st10">円滑で</tspan><tspan x="-15.7" y="20.7" class="st8 st9 st10">効率の良い</tspan><tspan x="-15.7" y="41.4" class="st8 st9 st10">会社づくり</tspan></text>
</g>
<g>
	<text transform="matrix(0.9998 1.836000e-02 -1.836000e-02 0.9998 23.4167 113.3785)"><tspan x="0" y="0" class="st5 st11 st12">Unconscious</tspan><tspan x="30.4" y="15.8" class="st5 st11 st12">bias</tspan></text>
</g>
<g>
	<text transform="matrix(1 0 0 1 124.8433 254.3468)"><tspan x="0" y="0" class="st5 st11 st12">Harassment</tspan><tspan x="4.3" y="15.8" class="st5 st11 st12">prevention</tspan></text>
</g>
<text transform="matrix(1 0 0 1 244.043 113.3467)"><tspan x="0" y="0" class="st5 st11 st12">Anger </tspan><tspan x="-24.2" y="15.8" class="st5 st11 st12">management</tspan></text>
</svg>
