<!--?xml version="1.0" encoding="utf-8"?-->
<!-- Generator: Adobe Illustrator 19.1.1, SVG Export Plug-In . SVG Version: 6.00 Build 0)  -->
<svg version="1.1" id="_x31_0" xmlns="http://www.w3.org/2000/svg" xmlns:xlink="http://www.w3.org/1999/xlink" x="0px" y="0px" viewBox="0 0 512 512" style="width: 512px; height: 512px; opacity: 1;" xml:space="preserve" preserveAspectRatio="xMinYMid">
<style type="text/css">
	.st0{fill:#374149;}
</style>
<g>
	<path class="st0" d="M256,0C114.617,0,0,114.614,0,256c0,141.383,114.617,256,256,256c141.39,0,256-114.617,256-256
		C512,114.614,397.39,0,256,0z M256,448c-105.867,0-192-86.133-192-192c0-105.871,86.133-192,192-192c105.875,0,192,86.129,192,192
		C448,361.867,361.875,448,256,448z" style="fill: rgb(75, 75, 75);"></path>
	<path class="st0" d="M121.203,228.832l-0.129,0.094l0,0l-0.129,0.098l10.691,14.375l10.687,14.344l4.226-3.137l2.422-1.688V367.43
		H363.05v-71.946l0.094-42.605l6.426,4.766l0,0l0,0l0.129,0.098l10.664-14.344l10.687-14.375L256,128.574L121.203,228.832z
		 M345.149,243.398h-17.902v88.226H287.07v-73.191h-62.145v73.191h-40.148v-88.226h-17.902h-2.977l-2.133-0.117l5.11-3.798
		l17.902-13.324l3.758-2.785L256,173.199l67.488,50.176l3.758,2.812l17.902,13.297l2.961,2.199l2.109,1.715H345.149z" style="fill: rgb(75, 75, 75);"></path>
</g>
</svg>
