<svg xmlns="http://www.w3.org/2000/svg" viewBox="0 0 358.29 44.24" preserveAspectRatio="xMinYMid"><defs><style>.cls-1{fill:#f0efef;}.cls-2{fill:#d67a7e;}.cls-3{fill:#d67b7f;}.cls-4{fill:#df9996;}.cls-5{fill:#d77d80;}.cls-6{fill:#df9895;}.cls-7{fill:#261b18;}.cls-8{fill:#e4b3b0;}.cls-9{fill:#dc8989;}</style></defs><g id="レイヤー_2" data-name="レイヤー 2"><g id="レイヤー_4のコピー_2" data-name="レイヤー 4のコピー 2"><path class="cls-1" d="M5.09,39.2H46.53V36.42H5.09Zm5.12-5H40.7V31.45H10.21Zm24.85-4.85c0-.77,0-1.44,0-2.1s-.23-.85-.88-.85c-3.9,0-7.81,0-11.72,0-2.18,0-4.36,0-6.54,0-.24,0-.68.18-.69.31-.06.86,0,1.73,0,2.61Zm-14.68-5H31.14V21.62H20.38ZM35.09,7.71A3.1,3.1,0,0,0,32,10.8a3.2,3.2,0,0,0,3,3,3.1,3.1,0,0,0,3.11-3.14A3,3,0,0,0,35.09,7.71Zm-8.24,8.73a2.48,2.48,0,0,0,2.45,2.48,2.54,2.54,0,0,0,2.5-2.45,2.48,2.48,0,0,0-4.95,0Z"/><path class="cls-2" d="M0,41.34H358.29v2.9H0Z"/><path class="cls-3" d="M45,0a14.87,14.87,0,0,1,1.91,1,4.64,4.64,0,0,1,1.49,5.67A4.72,4.72,0,0,1,43,9.34a4.65,4.65,0,0,1-3.71-4.46A4.62,4.62,0,0,1,42.52.23,4.37,4.37,0,0,0,43,0Z"/><path class="cls-3" d="M5.09,39.2V36.42H46.53V39.2Z"/><path class="cls-4" d="M10.21,34.22V31.45H40.7v2.77Z"/><path class="cls-5" d="M35.06,29.37H15.22c0-.88,0-1.75,0-2.61,0-.13.45-.31.69-.31,2.18,0,4.36,0,6.54,0,3.91,0,7.82,0,11.72,0,.65,0,.94.15.88.85S35.06,28.6,35.06,29.37Z"/><path class="cls-6" d="M20.38,24.37V21.62H31.14v2.75Z"/><path class="cls-6" d="M35.09,7.71a3,3,0,0,1,3.08,3,3.1,3.1,0,0,1-3.11,3.14,3.2,3.2,0,0,1-3-3A3.1,3.1,0,0,1,35.09,7.71Z"/><path class="cls-3" d="M26.85,16.44a2.48,2.48,0,0,1,4.95,0,2.54,2.54,0,0,1-2.5,2.45A2.48,2.48,0,0,1,26.85,16.44Z"/><path class="cls-7" d="M62.13,13.93c.11-.45.23-.91.33-1.37A12.86,12.86,0,0,1,74.05,2.12a32.07,32.07,0,0,1,9.48.51c.68.13,1.37.21,2.06.28.4,0,.55.18.52.6-.11,1.79-.18,3.58-.29,5.37a2.54,2.54,0,0,1-.34.78,3.69,3.69,0,0,1-.24-.78,4.73,4.73,0,0,0-3.09-4.51,15.37,15.37,0,0,0-7.76-.93A13.82,13.82,0,0,0,71.76,4a8.29,8.29,0,0,0-5.54,5.38A14.49,14.49,0,0,0,66.72,21,12.2,12.2,0,0,0,78,28.06a18.57,18.57,0,0,0,3.07-.21,4.87,4.87,0,0,0,4.41-4.07,1.56,1.56,0,0,1,.1-.37,5.94,5.94,0,0,1,.38-.59c.07.23.23.48.19.69-.22,1.44-.48,2.87-.73,4.31A1.34,1.34,0,0,1,84.33,29a30.45,30.45,0,0,1-3.41.61,22.57,22.57,0,0,1-9.21-.72c-5.53-1.8-8.74-5.57-9.48-11.38a1.33,1.33,0,0,0-.1-.28Zm81.07,14.9c-.17,0-.34-.08-.51-.1-.44-.06-.89-.07-1.33-.15A7.11,7.11,0,0,1,137.14,26c-1.8-2.08-3.52-4.22-5.26-6.34-.71-.87-1.38-1.76-2-2.63l.51-.52A11.89,11.89,0,0,0,134,10.44,6.14,6.14,0,0,0,129.62,3a15.25,15.25,0,0,0-3.81-.55c-2.91-.08-5.83,0-8.75,0a1,1,0,0,0-.39,0c-.1,0-.17.15-.26.24.1.07.18.19.28.2.37.06.75.06,1.12.12a1.62,1.62,0,0,1,1.57,1.66c.05.54.08,1.09.08,1.63,0,5.42,0,10.85,0,16.27a46.14,46.14,0,0,1-.29,4.7c-.11,1-.42,1.21-1.41,1.35a3.31,3.31,0,0,0-.55.08c-.1,0-.18.14-.27.22a1,1,0,0,0,.28.23,1.23,1.23,0,0,0,.39,0h7.46a1.25,1.25,0,0,0,.39,0,1.28,1.28,0,0,0,.29-.28c-.1-.06-.19-.16-.3-.18-.35-.05-.71-.06-1.06-.09-1.29-.11-1.79-.51-1.84-1.79-.12-2.86-.15-5.72-.23-8.58,0-.42.21-.44.53-.44,1.25,0,2.51.05,3.76,0a1.11,1.11,0,0,1,1,.51c.81,1.14,1.63,2.28,2.48,3.39,1.34,1.76,2.68,3.51,4.07,5.21a4.83,4.83,0,0,0,3.15,2c1.83.17,3.69.15,5.54.2.12,0,.25-.11.37-.17S143.2,28.89,143.2,28.83ZM122.32,4.49c0-.38.07-.68.5-.74A9.4,9.4,0,0,1,127,3.9a5.65,5.65,0,0,1,3.87,4.72,9.52,9.52,0,0,1-.38,5.36,3.85,3.85,0,0,1-3.91,2.77c-1.21,0-2.41-.21-3.61-.36-.49-.06-.71-.37-.7-.91,0-1.83,0-3.66,0-5.49S122.33,6.32,122.32,4.49Zm77.91,12a12.24,12.24,0,0,0,3.55-5.61,6.26,6.26,0,0,0-4.7-8,11.2,11.2,0,0,0-2.7-.38c-3.15,0-6.29,0-9.43,0a.72.72,0,0,0-.33,0,1,1,0,0,0-.27.23c.09.08.17.2.27.21.37.06.75.06,1.12.12A1.6,1.6,0,0,1,189.3,4.6a3.44,3.44,0,0,1,.06.72c0,5.44.06,10.89.06,16.33,0,1.65-.08,3.29-.18,4.93s-.4,1.92-2,2.14c0,0-.09,0-.12,0l-.26.22c.09.08.16.2.26.24a1.26,1.26,0,0,0,.39,0H195a1,1,0,0,0,.39,0,1.5,1.5,0,0,0,.3-.27.89.89,0,0,0-.3-.19c-.39-.05-.79-.06-1.17-.1-1.17-.12-1.66-.5-1.71-1.67-.13-2.91-.16-5.83-.24-8.74,0-.41.25-.39.52-.38,1.25,0,2.5,0,3.76,0a1.1,1.1,0,0,1,1,.5c.8,1.13,1.61,2.25,2.45,3.35,1.3,1.71,2.6,3.43,3.95,5.1A5.13,5.13,0,0,0,207.29,29c1.82.18,3.65.14,5.48.19.13,0,.27-.13.4-.2a.77.77,0,0,1,0-.15,2,2,0,0,0-.46-.11A7.1,7.1,0,0,1,207.12,26c-2.51-2.94-5-5.95-7.45-9C199.93,16.82,200.08,16.69,200.23,16.54Zm-8-12.07c0-.39.08-.67.5-.72a9.47,9.47,0,0,1,4.17.14,5.54,5.54,0,0,1,3.82,4.32,9.51,9.51,0,0,1-.28,5.73,3.87,3.87,0,0,1-3.94,2.81c-1.19,0-2.37-.21-3.56-.35-.51-.07-.73-.37-.72-.93,0-1.84,0-3.67,0-5.5S192.28,6.3,192.27,4.47Zm135.2,7.94c0,1.59,0,3.18,0,4.77a22.72,22.72,0,0,1-.55,5.45,7.48,7.48,0,0,1-14.33.75,15.43,15.43,0,0,1-.72-4.86c0-3.07,0-6.14,0-9.21,0-1.36,0-2.73.05-4.09.09-1.78.35-2,2.09-2.28a1.24,1.24,0,0,0,.38-.22c-.13-.08-.24-.21-.38-.24a1.65,1.65,0,0,0-.5,0h-6.39a8.49,8.49,0,0,0-1,0c-.14,0-.27.17-.41.26a1.36,1.36,0,0,0,.4.2c.32.06.64.06,1,.1a1.6,1.6,0,0,1,1.59,1.64,12.62,12.62,0,0,1,.09,1.51c0,3.8,0,7.59,0,11.39a27.17,27.17,0,0,0,.44,4.68,8.59,8.59,0,0,0,6.89,7.11,12.31,12.31,0,0,0,5.4.14c3.6-.73,6.24-2.67,7.35-6.28a16.6,16.6,0,0,0,.74-4.12c.13-3.51.09-7,.13-10.54,0-1.35.06-2.7.14-4A1.42,1.42,0,0,1,331.29,3c.22,0,.45,0,.66-.1a1.08,1.08,0,0,0,.29-.2,1.26,1.26,0,0,0-.31-.26,1.2,1.2,0,0,0-.38,0h-6.4a1.67,1.67,0,0,0-.5,0c-.1,0-.17.16-.25.24.09.07.18.19.28.2s.48,0,.72.07c1.5.19,2,.63,2,2.11,0,2.43,0,4.87,0,7.3Zm-30.81,17.2c1.26-.15,2.51-.39,3.75-.65a1.14,1.14,0,0,0,1-.83c.3-1.59.6-3.19.87-4.79,0-.16-.15-.35-.22-.52a3.39,3.39,0,0,0-.35.42,1.51,1.51,0,0,0-.09.38,4.91,4.91,0,0,1-4.46,4.23,17.48,17.48,0,0,1-3.07.21A12.15,12.15,0,0,1,283,21.32,14.32,14.32,0,0,1,282.5,9a8.08,8.08,0,0,1,5.34-5,16.09,16.09,0,0,1,10.44.37,4.65,4.65,0,0,1,3.07,4.51,3,3,0,0,0,.26.78,2.74,2.74,0,0,0,.35-.79c.11-1.79.17-3.59.27-5.38,0-.41-.12-.55-.52-.6-.91-.1-1.82-.22-2.72-.38a28.18,28.18,0,0,0-9.65-.27,12.39,12.39,0,0,0-9.41,6.6,14.48,14.48,0,0,0-1.54,8.79,12.75,12.75,0,0,0,7.42,10.43,17.75,17.75,0,0,0,8.5,1.56A18.4,18.4,0,0,0,296.66,29.61ZM107.53,29.1c2.13,0,4.26.08,6.39.1a1.51,1.51,0,0,0,.54-.21,1.29,1.29,0,0,1,0-.19,5.58,5.58,0,0,0-.57-.08,3.52,3.52,0,0,1-3.11-1.87c-.18-.32-.39-.64-.54-1-.5-1.16-1-2.33-1.46-3.51-2.52-6.48-5-13-7.53-19.45a5.35,5.35,0,0,0-.62-1,5.16,5.16,0,0,0-.64,1Q97.48,9.63,95,16.33c-1.22,3.32-2.44,6.65-3.69,10A3.3,3.3,0,0,1,88,28.72a2.71,2.71,0,0,0-.55.12,1.64,1.64,0,0,1,0,.22,4.42,4.42,0,0,0,.78.14q3.24,0,6.45,0a2.74,2.74,0,0,0,.76-.26,3.91,3.91,0,0,0-.72-.21c-1-.09-1.45-.59-1.27-1.6a9,9,0,0,1,.35-1.47c.7-2.11,1.43-4.2,2.12-6.31a.75.75,0,0,1,.86-.59c2.22,0,4.45,0,6.67,0a.93.93,0,0,1,1.07.71c.92,2.54,1.88,5.06,2.84,7.59.24.65.71,1.32-.39,1.87A4.09,4.09,0,0,0,107.53,29.1Zm-3.85-11.65H96.54c1.11-3.41,2.22-6.79,3.33-10.17h.23C101.28,10.65,102.47,14,103.68,17.45Zm74.49-15q-4.63.06-9.26.07c-1.22,0-2.44,0-3.65-.06-.17,0-.34.15-.51.23a3,3,0,0,0,.52.24c.29.07.6.06.89.11a1.61,1.61,0,0,1,1.53,1.64,15.77,15.77,0,0,1,.1,1.68c0,5.13,0,10.25,0,15.38,0,1.64,0,3.29-.18,4.93s-.32,1.76-2,2.05c-.12,0-.22.13-.34.21.13.09.24.23.37.25a3,3,0,0,0,.67,0c1.44,0,2.88-.05,4.32,0,2.69,0,5.39.11,8.08.14.88,0,1.13-.2,1.3-1.06.09-.44.15-.89.21-1.33.08-.63.16-1.26.2-1.9a1.49,1.49,0,0,0-.21-.56,3.7,3.7,0,0,0-.29.47,2.48,2.48,0,0,0-.12.54,2.46,2.46,0,0,1-2.47,2.26,28.73,28.73,0,0,1-4.25.08c-1.65-.11-2.22-.75-2.24-2.41-.05-3.12,0-6.25,0-9.37,0-.3.09-.44.42-.43,1.59.06,3.18.06,4.77.17s2,.65,2.11,2.2a1.72,1.72,0,0,0,.21.51,1.9,1.9,0,0,0,.27-.53c.15-1.38.28-2.75.41-4.13a4.2,4.2,0,0,0-.07-.67,4.42,4.42,0,0,1-.52.47c-.33.19-.66.5-1,.51-2.15.09-4.3.1-6.44.14,0,0-.06,0-.09-.06s0-.07,0-.1c0-3.3,0-6.59,0-9.88,0-.33.16-.4.46-.4,1.51,0,3,.06,4.54.12a7,7,0,0,1,1.49.28,1.52,1.52,0,0,1,1.19,1.33c.05.33.05.67.12,1,0,.12.17.21.26.31a1,1,0,0,0,.23-.28,1.51,1.51,0,0,0,.06-.38c.14-1.17.28-2.34.41-3.51a3.05,3.05,0,0,0,0-.52A8,8,0,0,1,178.17,2.46Zm-21.63,0q-4.68.06-9.36.06c-1.18,0-2.36,0-3.54,0-.17,0-.34.15-.51.22a2.26,2.26,0,0,0,.52.25c.31.07.63.06.94.12a1.56,1.56,0,0,1,1.47,1.45,4.11,4.11,0,0,1,.07.78c0,5.57.06,11.15.06,16.72,0,1.57-.08,3.14-.19,4.7s-.43,1.82-1.87,2a1.54,1.54,0,0,0-.47.25,2.58,2.58,0,0,0,.51.23,2.53,2.53,0,0,0,.55,0c1.46,0,2.92,0,4.38,0,2.69,0,5.38.11,8.08.14.78,0,1-.2,1.18-1,.18-1,.32-2,.43-3a3.07,3.07,0,0,0-.15-.88c-.47.1-.35.52-.41.81-.25,1.28-.85,2.32-2.25,2.43a36.57,36.57,0,0,1-4.91,0c-1.22-.07-1.72-.68-1.8-1.9s-.09-2.54-.1-3.81c0-2,0-3.93,0-5.89,0-.18.2-.51.3-.5,1.86,0,3.71.1,5.55.25a1.43,1.43,0,0,1,1.33,1.31c0,.33,0,.67.11,1,0,.11.14.19.22.29.08-.09.2-.16.24-.26a1.17,1.17,0,0,0,.05-.38c.12-1.31.25-2.61.36-3.91,0-.21,0-.42,0-.71-.19.1-.32.13-.37.21a1.94,1.94,0,0,1-1.66.77c-1.86,0-3.71.06-5.56.11-.46,0-.61-.13-.6-.6,0-2.19,0-4.37,0-6.56,0-.94,0-1.87,0-2.81,0-.28,0-.52.41-.51,1.77.08,3.55.08,5.31.23,1.48.13,1.89.65,2.07,2.1a2.41,2.41,0,0,0,.27.7c.11-.23.22-.47.32-.71,0-.05,0-.11,0-.17l.36-3.22a5.6,5.6,0,0,0,0-.58A8.14,8.14,0,0,1,156.54,2.46Zm82.32,10.92a2.26,2.26,0,0,1-2.17.9c-1.81,0-3.63,0-5.44.08-.45,0-.62-.11-.61-.59,0-1.46,0-2.91,0-4.37V4.46c0-.29,0-.59.4-.58,1.89,0,3.78,0,5.67.15,1.64.11,2.19.75,2.41,2.38a1.53,1.53,0,0,0,.23.46c.11-.15.28-.3.3-.46.09-.74.12-1.49.21-2.23,0-.5.17-1,.24-1.49s-.06-.57-.5-.41a2.26,2.26,0,0,1-.7.18q-5.16,0-10.33.06c-1.19,0-2.39,0-3.58,0-.14,0-.27.17-.41.26a1.36,1.36,0,0,0,.4.2c.33.06.67.06,1,.11a1.62,1.62,0,0,1,1.55,1.68c.05.67.1,1.35.1,2,0,4.95,0,9.91,0,14.87,0,1.73-.08,3.47-.22,5.2-.12,1.5-.38,1.69-1.89,1.9,0,0-.08,0-.11,0s-.2.16-.31.24a1.17,1.17,0,0,0,.29.22,1.26,1.26,0,0,0,.39,0h7.57a1.27,1.27,0,0,0,.44,0c.11,0,.17-.16.26-.25-.1-.07-.18-.18-.29-.2-.31-.05-.62-.06-.94-.09-1.44-.1-1.78-.42-2-1.83,0-.15,0-.3,0-.45,0-3.42-.09-6.84-.15-10.26,0-.37.13-.49.49-.48,1.67.05,3.33.06,5,.11a2,2,0,0,1,1.68.86,8.26,8.26,0,0,1,.47,1.53,2.4,2.4,0,0,0,.27.46,1.75,1.75,0,0,0,.22-.51c.16-1.42.29-2.86.42-4.29a5.09,5.09,0,0,0,0-.59C239,13.31,238.89,13.33,238.86,13.38ZM350.25,7.3a7.72,7.72,0,0,0,.12-.84c0-1,0-1.94.09-2.91s.08-.95-.86-1.11l-.16,0a14.73,14.73,0,0,0-5.84-.26,6.17,6.17,0,0,0-5.32,6.74,7.21,7.21,0,0,0,2.13,4.75c1.27,1.29,2.68,2.43,4,3.67a35.12,35.12,0,0,1,2.95,2.9,5.08,5.08,0,0,1,.94,4.91,4.75,4.75,0,0,1-5,3.29c-2.91-.06-5.27-1.58-5.2-4.88,0-.14-.17-.28-.24-.41-.1.14-.27.28-.28.43-.08,1.4-.12,2.8-.19,4.2a1.06,1.06,0,0,0,.78,1.14,11.83,11.83,0,0,0,6.6.65,7.38,7.38,0,0,0,5.85-9.85,10.83,10.83,0,0,0-3.49-4.59c-1.48-1.28-3.05-2.47-4.51-3.78a7.51,7.51,0,0,1-1.59-2,4,4,0,0,1,2.81-6,7,7,0,0,1,2.23,0c2.58.38,3.47,1.39,3.72,3.52a2.5,2.5,0,0,0,.19.52A2,2,0,0,0,350.25,7.3Z"/><path class="cls-3" d="M253,21.43a8.72,8.72,0,0,1-7.66-8.8A8.68,8.68,0,0,1,252.69,4C248.24,9.84,248.34,15.64,253,21.43Z"/><path class="cls-3" d="M267.81,14.48a8.87,8.87,0,0,1-10.09,14.35Q268.39,25.61,267.81,14.48Z"/><path class="cls-8" d="M268.29,5.71c-7-2.36-12.56-.5-16.55,5.73a8.86,8.86,0,0,1,16.55-5.73Z"/><path class="cls-9" d="M271.43,21.09q.21-11.1-10.53-14a8.8,8.8,0,0,1,11.3,2.52C275.06,13.47,274.16,18.67,271.43,21.09Z"/><path class="cls-9" d="M262.92,23.37a7.94,7.94,0,0,1-4.37,4.21,8.64,8.64,0,0,1-9.76-1.73,8.66,8.66,0,0,1-2.7-7.48,1.53,1.53,0,0,1,.09-.24c.43.6.82,1.19,1.25,1.73a12.66,12.66,0,0,0,14.88,3.65c.18-.07.38-.11.58-.17Z"/><path class="cls-8" d="M268.34,5.75s0,0,0,0h0l0,0Z"/><path class="cls-9" d="M262.89,23.34l.07,0a.25.25,0,0,1,0,.07Z"/></g></g></svg>